<svg class="mr-1" xmlns="http://www.w3.org/2000/svg" version="1.0" width="40pt" height="35pt"
     viewBox="0 0 54.000000 48.000000" preserveAspectRatio="xMidYMid meet">

  <g transform="translate(0.000000,48.000000) scale(0.100000,-0.100000)" stroke="none">
    <path
      d="M103 384 c-42 -21 -47 -41 -26 -100 18 -48 19 -49 65 -52 45 -3 48 -2 66 35 31 59 57 79 87 65 50 -23 84 -119 53 -150 -17 -17 -83 -15 -118 3 -20 10 -31 12 -35 4 -4 -6 -17 -14 -29 -18 -20 -8 -19 -10 19 -46 77 -71 137 -86 181 -44 32 30 88 130 105 186 11 38 10 45 -6 63 -33 36 -122 62 -230 67 -79 3 -107 0 -132 -13z"
      style="&#10;    color: #900;&#10;"/>
    <path d="M256 275 c-24 -24 -20 -33 17 -43 39 -10 49 10 19 40 -18 18 -20 18 -36 3z"/>
  </g>
</svg>
